<svg width="30" height="23" viewBox="0 0 30 23" fill="none" xmlns="http://www.w3.org/2000/svg">
<path d="M29.5848 12.4424L19.5843 22.4429C18.6914 23.3358 17.1437 22.7107 17.1437 21.4309V15.7163H9.04807C8.25636 15.7163 7.61943 15.0794 7.61943 14.2877V8.57312C7.61943 7.78141 8.25636 7.14448 9.04807 7.14448H17.1437V1.42991C17.1437 0.156036 18.6854 -0.474948 19.5843 0.417953L29.5848 10.4184C30.1384 10.978 30.1384 11.8828 29.5848 12.4424ZM11.4291 22.1452V19.7642C11.4291 19.3713 11.1077 19.0498 10.7148 19.0498H5.71457C4.66095 19.0498 3.80971 18.1986 3.80971 17.145V5.71584C3.80971 4.66221 4.66095 3.81098 5.71457 3.81098H10.7148C11.1077 3.81098 11.4291 3.48953 11.4291 3.09666V0.715587C11.4291 0.322711 11.1077 0.00126605 10.7148 0.00126605H5.71457C2.55965 0.00126605 0 2.56092 0 5.71584V17.145C0 20.2999 2.55965 22.8595 5.71457 22.8595H10.7148C11.1077 22.8595 11.4291 22.5381 11.4291 22.1452Z" fill="black"/>
</svg>
