<svg width="26" height="26" viewBox="0 0 26 26" fill="none" xmlns="http://www.w3.org/2000/svg">
<path d="M22.4584 7.50395C22.2784 7.19209 22.0206 6.93221 21.7103 6.74965C21.3999 6.56709 21.0476 6.46808 20.6875 6.46228H7.35421L6.75004 4.10811C6.689 3.88086 6.55281 3.68097 6.36366 3.541C6.17451 3.40103 5.94354 3.32923 5.70837 3.33728H3.62504C3.34877 3.33728 3.08382 3.44703 2.88847 3.64238C2.69312 3.83773 2.58337 4.10268 2.58337 4.37895C2.58337 4.65521 2.69312 4.92017 2.88847 5.11552C3.08382 5.31087 3.34877 5.42061 3.62504 5.42061H4.91671L7.79171 16.1081C7.85275 16.3354 7.98894 16.5353 8.17809 16.6752C8.36724 16.8152 8.5982 16.887 8.83337 16.8789H18.2084C18.4007 16.8784 18.5892 16.8245 18.7528 16.7234C18.9165 16.6223 19.0489 16.4778 19.1355 16.306L22.5521 9.4727C22.7002 9.1623 22.7692 8.82006 22.7528 8.47653C22.7364 8.13301 22.6353 7.79887 22.4584 7.50395Z" fill="black"/>
<path d="M8.3125 22.0873C9.17544 22.0873 9.875 21.3877 9.875 20.5248C9.875 19.6618 9.17544 18.9623 8.3125 18.9623C7.44956 18.9623 6.75 19.6618 6.75 20.5248C6.75 21.3877 7.44956 22.0873 8.3125 22.0873Z" fill="black"/>
<path d="M18.7292 22.0873C19.5922 22.0873 20.2917 21.3877 20.2917 20.5248C20.2917 19.6618 19.5922 18.9623 18.7292 18.9623C17.8663 18.9623 17.1667 19.6618 17.1667 20.5248C17.1667 21.3877 17.8663 22.0873 18.7292 22.0873Z" fill="black"/>
</svg>
