<svg width="26" height="28" viewBox="0 0 26 28" fill="none" xmlns="http://www.w3.org/2000/svg">
<path d="M14.4313 0.569484C13.6281 -0.189828 12.3719 -0.189828 11.5687 0.569484L1.47808 10.1098C0.85375 10.7001 0.5 11.5214 0.5 12.3805V23.9831C0.5 25.709 1.8991 27.1081 3.625 27.1081H6.75C8.4759 27.1081 9.875 25.709 9.875 23.9831V18.7748C9.875 18.1996 10.3414 17.7332 10.9167 17.7332H15.0833C15.6586 17.7332 16.125 18.1996 16.125 18.7748V23.9831C16.125 25.709 17.5242 27.1081 19.25 27.1081H22.375C24.1008 27.1081 25.5 25.709 25.5 23.9831V12.3805C25.5 11.5214 25.1462 10.7001 24.5219 10.1098L14.4313 0.569484Z" fill="black"/>
</svg>
