<svg width="30" height="31" viewBox="0 0 30 31" fill="none" xmlns="http://www.w3.org/2000/svg">
<path d="M26.35 8.85816C26.134 8.48393 25.8247 8.17207 25.4523 7.953C25.0799 7.73392 24.657 7.61511 24.225 7.60816H8.225L7.5 4.78316C7.42675 4.51045 7.26333 4.27059 7.03635 4.10262C6.80937 3.93465 6.5322 3.84849 6.25 3.85815H3.75C3.41848 3.85815 3.10054 3.98985 2.86612 4.22427C2.6317 4.45869 2.5 4.77663 2.5 5.10816C2.5 5.43968 2.6317 5.75762 2.86612 5.99204C3.10054 6.22646 3.41848 6.35816 3.75 6.35816H5.3L8.75 19.1832C8.82325 19.4559 8.98667 19.6957 9.21365 19.8637C9.44063 20.0317 9.7178 20.1178 10 20.1082H21.25C21.4808 20.1075 21.707 20.0428 21.9033 19.9215C22.0997 19.8002 22.2586 19.6268 22.3625 19.4207L26.4625 11.2207C26.6402 10.8482 26.7229 10.4375 26.7033 10.0253C26.6837 9.61303 26.5623 9.21206 26.35 8.85816Z" fill="black"/>
<path d="M9.375 26.3582C10.4105 26.3582 11.25 25.5187 11.25 24.4832C11.25 23.4476 10.4105 22.6082 9.375 22.6082C8.33947 22.6082 7.5 23.4476 7.5 24.4832C7.5 25.5187 8.33947 26.3582 9.375 26.3582Z" fill="black"/>
<path d="M21.875 26.3582C22.9105 26.3582 23.75 25.5187 23.75 24.4832C23.75 23.4476 22.9105 22.6082 21.875 22.6082C20.8395 22.6082 20 23.4476 20 24.4832C20 25.5187 20.8395 26.3582 21.875 26.3582Z" fill="black"/>
</svg>
