<svg width="25" height="24" viewBox="0 0 25 24" fill="none" xmlns="http://www.w3.org/2000/svg">
<path d="M2.5 13.3918C1.1125 13.3918 0 14.5043 0 15.8918V20.8918C0 22.2793 1.1125 23.3918 2.5 23.3918H7.5C8.8875 23.3918 10 22.2793 10 20.8918V15.8918C10 14.5043 8.8875 13.3918 7.5 13.3918M7.75 15.2668L9.075 16.5793L4.0875 21.5168L0.925 18.3293L2.2625 17.0168L4.1 18.8793M2.5 0.891846C1.1125 0.891846 0 2.00435 0 3.39185V8.39185C0 9.77935 1.1125 10.8918 2.5 10.8918H7.5C8.8875 10.8918 10 9.77935 10 8.39185V3.39185C10 2.00435 8.8875 0.891846 7.5 0.891846M2.5 3.39185H7.5V8.39185H2.5M12.5 3.39185H25V5.89185H12.5M12.5 20.8918V18.3918H25V20.8918M12.5 10.8918H25V13.3918H12.5V10.8918Z" fill="black"/>
</svg>
