<svg width="30" height="30" viewBox="0 0 30 30" fill="none" xmlns="http://www.w3.org/2000/svg">
<path d="M12.5051 18.375C13.5407 18.375 14.3801 17.5355 14.3801 16.5C14.3801 15.4645 13.5407 14.625 12.5051 14.625C11.4696 14.625 10.6301 15.4645 10.6301 16.5C10.6301 17.5355 11.4696 18.375 12.5051 18.375Z" fill="black"/>
<path d="M24.8677 14.4L23.8802 11.25C23.7736 10.8859 23.5948 10.5471 23.3543 10.2537C23.1139 9.96021 22.8169 9.7182 22.4809 9.54205C22.1449 9.3659 21.7769 9.25922 21.3988 9.22837C21.0207 9.19752 20.6403 9.24314 20.2802 9.3625L19.8552 9.5C19.5223 9.61006 19.1677 9.63798 18.8216 9.58139C18.4755 9.5248 18.1483 9.38538 17.8677 9.175L17.7302 9.075C17.4565 8.86547 17.2358 8.59453 17.086 8.28404C16.9361 7.97355 16.8614 7.63219 16.8677 7.2875V6.9375C16.8738 6.15253 16.5681 5.39724 16.0177 4.8375C15.7559 4.57307 15.4445 4.36295 15.1013 4.21923C14.7581 4.07551 14.3898 4.001 14.0177 4H10.8302C10.0655 4.00988 9.33554 4.32149 8.79942 4.86698C8.26329 5.41247 7.96437 6.14766 7.96773 6.9125V7.2125C7.96653 7.57534 7.88392 7.93329 7.726 8.25996C7.56807 8.58663 7.33885 8.87369 7.05523 9.1L6.89273 9.225C6.57941 9.46203 6.21294 9.61895 5.82518 9.68212C5.43741 9.7453 5.04009 9.71282 4.66773 9.5875C4.32575 9.46916 3.96331 9.42143 3.60235 9.44721C3.24139 9.473 2.88942 9.57175 2.56773 9.7375C2.2328 9.90373 1.93566 10.1371 1.69481 10.4231C1.45395 10.7091 1.27454 11.0417 1.16773 11.4L0.142731 14.65C-0.0949658 15.3827 -0.0340079 16.1797 0.312368 16.8678C0.658743 17.5558 1.26257 18.0795 1.99273 18.325H2.19273C2.52955 18.4512 2.83186 18.6551 3.07512 18.9201C3.31837 19.185 3.49571 19.5036 3.59273 19.85L3.66773 20.05C3.80708 20.4327 3.85367 20.8429 3.8037 21.2471C3.75372 21.6513 3.60859 22.0378 3.38023 22.375C2.918 23.0045 2.72303 23.791 2.83774 24.5635C2.95244 25.336 3.36754 26.032 3.99273 26.5L6.58023 28.4625C7.07017 28.8187 7.66203 29.0072 8.26773 29C8.42984 29.0159 8.59312 29.0159 8.75523 29C9.13036 28.9274 9.48676 28.7791 9.80268 28.5642C10.1186 28.3493 10.3874 28.0722 10.5927 27.75L10.8802 27.3375C11.0819 27.0482 11.3488 26.8104 11.6593 26.6432C11.9698 26.476 12.3152 26.3841 12.6677 26.375C13.0372 26.3659 13.4029 26.4506 13.7308 26.621C14.0587 26.7915 14.338 27.0423 14.5427 27.35L14.6927 27.5625C14.9059 27.8797 15.1817 28.1499 15.5031 28.3565C15.8246 28.563 16.185 28.7016 16.562 28.7637C16.9391 28.8257 17.3249 28.81 17.6956 28.7173C18.0663 28.6247 18.4142 28.4571 18.7177 28.225L21.2552 26.325C21.8552 25.859 22.2542 25.1812 22.3704 24.4305C22.4866 23.6798 22.3112 22.9131 21.8802 22.2875L21.5552 21.8125C21.3598 21.5105 21.2318 21.17 21.1801 20.814C21.1283 20.4581 21.1539 20.0951 21.2552 19.75C21.3585 19.3806 21.5502 19.0418 21.8137 18.763C22.0772 18.4843 22.4047 18.2739 22.7677 18.15L23.0177 18.0625C23.7411 17.8115 24.3386 17.289 24.6838 16.6056C25.029 15.9221 25.095 15.1312 24.8677 14.4ZM12.5052 20.875C11.6399 20.875 10.7941 20.6184 10.0746 20.1377C9.35515 19.6569 8.79439 18.9737 8.46326 18.1742C8.13212 17.3748 8.04549 16.4951 8.2143 15.6465C8.38311 14.7978 8.79978 14.0183 9.41164 13.4064C10.0235 12.7946 10.803 12.3779 11.6517 12.2091C12.5004 12.0403 13.38 12.1269 14.1795 12.458C14.9789 12.7892 15.6622 13.3499 16.1429 14.0694C16.6236 14.7888 16.8802 15.6347 16.8802 16.5C16.8802 17.6603 16.4193 18.7731 15.5988 19.5936C14.7784 20.4141 13.6656 20.875 12.5052 20.875Z" fill="black"/>
</svg>
