<svg width="30" height="30" viewBox="0 0 30 30" fill="none" xmlns="http://www.w3.org/2000/svg">
<path d="M15 16.875C16.0355 16.875 16.875 16.0355 16.875 15C16.875 13.9645 16.0355 13.125 15 13.125C13.9645 13.125 13.125 13.9645 13.125 15C13.125 16.0355 13.9645 16.875 15 16.875Z" fill="black"/>
<path d="M27.3626 12.9L26.3751 9.75C26.2685 9.38594 26.0896 9.04709 25.8492 8.75365C25.6088 8.46021 25.3117 8.2182 24.9758 8.04205C24.6398 7.8659 24.2718 7.75922 23.8937 7.72837C23.5156 7.69752 23.1352 7.74314 22.7751 7.8625L22.3501 8C22.0172 8.11006 21.6625 8.13798 21.3165 8.08139C20.9704 8.0248 20.6432 7.88538 20.3626 7.675L20.2251 7.575C19.9513 7.36547 19.7306 7.09453 19.5808 6.78404C19.431 6.47355 19.3563 6.13219 19.3626 5.7875V5.4375C19.3687 4.65253 19.063 3.89724 18.5126 3.3375C18.2508 3.07307 17.9394 2.86295 17.5962 2.71923C17.2529 2.57551 16.8847 2.501 16.5126 2.5H13.3251C12.5603 2.50988 11.8304 2.82149 11.2943 3.36698C10.7582 3.91247 10.4592 4.64766 10.4626 5.4125V5.7125C10.4614 6.07534 10.3788 6.43329 10.2209 6.75996C10.0629 7.08663 9.83372 7.37369 9.5501 7.6L9.3876 7.725C9.07428 7.96203 8.70781 8.11895 8.32005 8.18212C7.93229 8.2453 7.53496 8.21282 7.1626 8.0875C6.82062 7.96916 6.45819 7.92143 6.09723 7.94721C5.73627 7.973 5.38429 8.07175 5.0626 8.2375C4.72767 8.40373 4.43053 8.63712 4.18968 8.92313C3.94883 9.20914 3.76941 9.54166 3.6626 9.9L2.6376 13.15C2.39991 13.8827 2.46087 14.6797 2.80724 15.3678C3.15362 16.0558 3.75744 16.5795 4.4876 16.825H4.6876C5.02443 16.9512 5.32674 17.1551 5.56999 17.4201C5.81324 17.685 5.99058 18.0036 6.0876 18.35L6.1626 18.55C6.30195 18.9327 6.34855 19.3429 6.29857 19.7471C6.24859 20.1513 6.10347 20.5378 5.8751 20.875C5.41287 21.5045 5.21791 22.291 5.33261 23.0635C5.44731 23.836 5.86241 24.532 6.4876 25L9.0751 26.9625C9.56504 27.3187 10.1569 27.5072 10.7626 27.5C10.9247 27.5159 11.088 27.5159 11.2501 27.5C11.6252 27.4274 11.9816 27.2791 12.2976 27.0642C12.6135 26.8493 12.8823 26.5722 13.0876 26.25L13.3751 25.8375C13.5768 25.5482 13.8436 25.3104 14.1541 25.1432C14.4646 24.976 14.8101 24.8841 15.1626 24.875C15.5321 24.8659 15.8978 24.9506 16.2257 25.121C16.5535 25.2915 16.8329 25.5423 17.0376 25.85L17.1876 26.0625C17.4007 26.3797 17.6765 26.6499 17.998 26.8565C18.3195 27.063 18.6799 27.2016 19.0569 27.2637C19.434 27.3257 19.8197 27.31 20.1905 27.2173C20.5612 27.1247 20.9091 26.9571 21.2126 26.725L23.7501 24.825C24.3501 24.359 24.7491 23.6812 24.8653 22.9305C24.9815 22.1798 24.8061 21.4131 24.3751 20.7875L24.0501 20.3125C23.8547 20.0105 23.7267 19.67 23.6749 19.314C23.6231 18.9581 23.6488 18.5951 23.7501 18.25C23.8534 17.8806 24.045 17.5418 24.3086 17.263C24.5721 16.9843 24.8995 16.7739 25.2626 16.65L25.5126 16.5625C26.236 16.3115 26.8334 15.789 27.1787 15.1056C27.5239 14.4221 27.5899 13.6312 27.3626 12.9ZM15.0001 19.375C14.1348 19.375 13.2889 19.1184 12.5695 18.6377C11.85 18.1569 11.2893 17.4737 10.9581 16.6742C10.627 15.8748 10.5404 14.9951 10.7092 14.1465C10.878 13.2978 11.2947 12.5183 11.9065 11.9064C12.5184 11.2946 13.2979 10.8779 14.1466 10.7091C14.9953 10.5403 15.8749 10.6269 16.6743 10.958C17.4738 11.2892 18.1571 11.8499 18.6378 12.5694C19.1185 13.2888 19.3751 14.1347 19.3751 15C19.3751 16.1603 18.9142 17.2731 18.0937 18.0936C17.2732 18.9141 16.1604 19.375 15.0001 19.375Z" fill="black"/>
</svg>
