<svg width="25" height="33" viewBox="0 0 25 33" fill="none" xmlns="http://www.w3.org/2000/svg">
<path d="M24.4243 20.2976L22.7992 17.5999C22.4579 16.9986 22.1492 15.861 22.1492 15.1947V11.0832C22.1492 7.26422 19.9065 3.96526 16.6725 2.42141C15.8275 0.926311 14.2674 0 12.4798 0C10.7084 0 9.11586 0.958813 8.27081 2.47016C5.10185 4.04651 2.90796 7.31298 2.90796 11.0832V15.1947C2.90796 15.861 2.59919 16.9986 2.25792 17.5837L0.616558 20.2976C-0.0334841 21.3864 -0.179743 22.589 0.226533 23.6941C0.616559 24.7829 1.54287 25.6279 2.74545 26.0342C5.89815 27.1068 9.21337 27.6268 12.5285 27.6268C15.8437 27.6268 19.159 27.1068 22.3117 26.0505C23.4492 25.6767 24.3268 24.8154 24.7493 23.6941C25.1719 22.5727 25.0581 21.3376 24.4243 20.2976Z" fill="#292D32"/>
<path d="M17.0947 29.2681C16.4122 31.1533 14.6083 32.5021 12.4957 32.5021C11.2118 32.5021 9.94424 31.9821 9.05042 31.0558C8.53038 30.5682 8.14036 29.9182 7.91284 29.2519C8.12411 29.2844 8.33537 29.3006 8.56288 29.3331C8.93666 29.3819 9.3267 29.4307 9.71672 29.4632C10.643 29.5444 11.5856 29.5932 12.5282 29.5932C13.4545 29.5932 14.3808 29.5444 15.2908 29.4632C15.6321 29.4307 15.9734 29.4144 16.2984 29.3656C16.5584 29.3331 16.8184 29.3006 17.0947 29.2681Z" fill="#292D32"/>
</svg>
