<svg width="25" height="23" viewBox="0 0 25 23" fill="none" xmlns="http://www.w3.org/2000/svg">
<path d="M2.5 12.7162C1.1125 12.7162 0 13.8287 0 15.2162V20.2162C0 21.6037 1.1125 22.7162 2.5 22.7162H7.5C8.8875 22.7162 10 21.6037 10 20.2162V15.2162C10 13.8287 8.8875 12.7162 7.5 12.7162M7.75 14.5912L9.075 15.9037L4.0875 20.8412L0.925 17.6538L2.2625 16.3412L4.1 18.2037M2.5 0.216248C1.1125 0.216248 0 1.32875 0 2.71625V7.71625C0 9.10375 1.1125 10.2162 2.5 10.2162H7.5C8.8875 10.2162 10 9.10375 10 7.71625V2.71625C10 1.32875 8.8875 0.216248 7.5 0.216248M2.5 2.71625H7.5V7.71625H2.5M12.5 2.71625H25V5.21625H12.5M12.5 20.2162V17.7162H25V20.2162M12.5 10.2162H25V12.7162H12.5V10.2162Z" fill="black"/>
</svg>
