<svg width="26" height="20" viewBox="0 0 26 20" fill="none" xmlns="http://www.w3.org/2000/svg">
<path d="M25.154 10.3686L16.8203 18.7024C16.0762 19.4465 14.7864 18.9256 14.7864 17.8591V13.0969H8.04006C7.3803 13.0969 6.84952 12.5662 6.84952 11.9064V7.14427C6.84952 6.48451 7.3803 5.95373 8.04006 5.95373H14.7864V1.19159C14.7864 0.13003 16.0712 -0.39579 16.8203 0.348294L25.154 8.68204C25.6153 9.14833 25.6153 9.90234 25.154 10.3686ZM10.0243 18.4544V16.4701C10.0243 16.1427 9.75641 15.8749 9.42901 15.8749H5.26214C4.38412 15.8749 3.67476 15.1655 3.67476 14.2875V4.7632C3.67476 3.88518 4.38412 3.17582 5.26214 3.17582H9.42901C9.75641 3.17582 10.0243 2.90795 10.0243 2.58055V0.596323C10.0243 0.268925 9.75641 0.00105504 9.42901 0.00105504H5.26214C2.63304 0.00105504 0.5 2.1341 0.5 4.7632V14.2875C0.5 16.9166 2.63304 19.0496 5.26214 19.0496H9.42901C9.75641 19.0496 10.0243 18.7817 10.0243 18.4544Z" fill="black"/>
</svg>
