<svg width="25" height="28" viewBox="0 0 25 28" fill="none" xmlns="http://www.w3.org/2000/svg">
<path d="M13.9313 0.569484C13.1281 -0.189828 11.8719 -0.189828 11.0687 0.569484L0.978083 10.1098C0.35375 10.7001 0 11.5214 0 12.3805V23.9831C0 25.709 1.3991 27.1081 3.125 27.1081H6.25C7.9759 27.1081 9.375 25.709 9.375 23.9831V18.7748C9.375 18.1996 9.84137 17.7332 10.4167 17.7332H14.5833C15.1586 17.7332 15.625 18.1996 15.625 18.7748V23.9831C15.625 25.709 17.0242 27.1081 18.75 27.1081H21.875C23.6008 27.1081 25 25.709 25 23.9831V12.3805C25 11.5214 24.6462 10.7001 24.0219 10.1098L13.9313 0.569484Z" fill="black"/>
</svg>
