<svg width="25" height="30" viewBox="0 0 25 30" fill="none" xmlns="http://www.w3.org/2000/svg">
<path d="M25 20.8055V2.05553C25 1.31335 24.4029 0.716248 23.6607 0.716248H5.35714C2.39955 0.716248 0 3.1158 0 6.07339V23.9305C0 26.8881 2.39955 29.2877 5.35714 29.2877H23.6607C24.4029 29.2877 25 28.6906 25 27.9484V27.0555C25 26.637 24.8047 26.2575 24.5033 26.012C24.269 25.1526 24.269 22.7029 24.5033 21.8435C24.8047 21.6035 25 21.2241 25 20.8055ZM7.14286 8.19393C7.14286 8.00977 7.29353 7.8591 7.47768 7.8591H19.308C19.4922 7.8591 19.6429 8.00977 19.6429 8.19393V9.31C19.6429 9.49415 19.4922 9.64482 19.308 9.64482H7.47768C7.29353 9.64482 7.14286 9.49415 7.14286 9.31V8.19393ZM7.14286 11.7654C7.14286 11.5812 7.29353 11.4305 7.47768 11.4305H19.308C19.4922 11.4305 19.6429 11.5812 19.6429 11.7654V12.8814C19.6429 13.0656 19.4922 13.2162 19.308 13.2162H7.47768C7.29353 13.2162 7.14286 13.0656 7.14286 12.8814V11.7654ZM21.2835 25.7162H5.35714C4.36942 25.7162 3.57143 24.9183 3.57143 23.9305C3.57143 22.9484 4.375 22.1448 5.35714 22.1448H21.2835C21.1775 23.0991 21.1775 24.762 21.2835 25.7162Z" fill="black"/>
</svg>
